<svg xmlns="http://www.w3.org/2000/svg" viewBox="0 0 16 16"><path fill-rule="evenodd" d="M16 4v9c0 1.657-3.582 3-8 3s-8-1.343-8-3V4c0-1.657 3.582-3 8-3s8 1.343 8 3zm-1 0c0 .026-.01.17-.292.42-.28.248-.744.518-1.402.765C11.996 5.675 10.12 6 8 6s-3.997-.324-5.306-.815c-.658-.247-1.121-.517-1.402-.766C1.01 4.17 1 4.026 1 4c0-.026.01-.17.292-.42.28-.248.744-.518 1.402-.765C4.004 2.325 5.88 2 8 2s3.997.324 5.306.815c.658.247 1.121.517 1.402.766.282.25.292.393.292.419zm0 1.454C13.635 6.375 11.012 7 8 7s-5.635-.624-7-1.546V7c0 .025.01.17.292.42.28.248.744.518 1.402.765C4.004 8.675 5.88 9 8 9s3.997-.324 5.306-.815c.658-.247 1.121-.517 1.402-.766.282-.25.292-.394.292-.42V5.455zm0 6V13c0 .026-.01.17-.292.42-.28.248-.744.518-1.402.765-1.31.49-3.185.815-5.306.815s-3.997-.324-5.306-.815c-.658-.247-1.121-.517-1.402-.766C1.01 13.17 1 13.025 1 13v-1.546C2.365 12.376 4.988 13 8 13s5.635-.624 7-1.547zm0-3V10c0 .025-.01.17-.292.42-.28.248-.744.518-1.402.765-1.31.49-3.185.815-5.306.815s-3.997-.324-5.306-.815c-.658-.247-1.121-.517-1.402-.766C1.01 10.17 1 10.025 1 10V8.454C2.365 9.376 4.988 10 8 10s5.635-.624 7-1.547z" clip-rule="evenodd"/></svg>