<svg xmlns="http://www.w3.org/2000/svg" viewBox="0 0 16 16"><path fill-rule="evenodd" d="M14 4a2 2 0 1 1-4 0 2 2 0 0 1 4 0zm-1 0a1 1 0 1 1-2 0 1 1 0 0 1 2 0z" clip-rule="evenodd"/><path fill-rule="evenodd" d="M11 10a5 5 0 1 0-4.622-3.09L.146 13.143a.499.499 0 0 0-.146.356V15.5a.5.5 0 0 0 .5.5h3a.5.5 0 0 0 .5-.5V14h1.5a.5.5 0 0 0 .5-.5V12h1.5a.5.5 0 0 0 .5-.5V10h2.75c.02 0 .04-.001.06-.004.063.003.126.004.19.004zm0-1a4 4 0 1 0 0-8 4 4 0 0 0 0 8zM1 13.703l5.876-5.876c.308.45.688.846 1.124 1.173h-.5a.5.5 0 0 0-.5.5V11H5.5a.5.5 0 0 0-.5.5V13H3.5a.5.5 0 0 0-.5.5V15H1v-1.297z" clip-rule="evenodd"/></svg>