<svg xmlns="http://www.w3.org/2000/svg" viewBox="0 0 16 16"><path fill-rule="evenodd" d="M2 .5a.5.5 0 0 1 1 0v1.55a2.5 2.5 0 0 1 0 4.9v8.55a.5.5 0 1 1-1 0V6.95a2.5 2.5 0 0 1 0-4.9V.5zm2 4a1.5 1.5 0 1 1-3 0 1.5 1.5 0 0 1 3 0zM7 .5a.5.5 0 0 1 1 0v8.55a2.5 2.5 0 0 1 0 4.9v1.55a.5.5 0 1 1-1 0v-1.55a2.5 2.5 0 0 1 0-4.9V.5zM7.5 13a1.5 1.5 0 1 0 0-3 1.5 1.5 0 0 0 0 3zM12.5 0a.5.5 0 0 0-.5.5v4.55a2.5 2.5 0 0 0 0 4.9v5.55a.5.5 0 1 0 1 0V9.95a2.5 2.5 0 0 0 0-4.9V.5a.5.5 0 0 0-.5-.5zM14 7.5a1.5 1.5 0 1 1-3 0 1.5 1.5 0 0 1 3 0z" clip-rule="evenodd"/></svg>