<svg xmlns="http://www.w3.org/2000/svg" viewBox="0 0 16 16"><path fill-rule="evenodd" d="M4.69 10.04a.5.5 0 00-.55.81.5.5 0 10.55-.81zM0 8.24V8h10.77c.58 0 1.2-.14 1.69-.44-.23-.3-.35-.68-.38-1.06-.05-.5.05-1.17.4-1.57l.17-.2.2.17c.52.41.95.99 1.03 1.65a2.5 2.5 0 011.9.18l.22.13-.12.23c-.46.9-1.43 1.18-2.37 1.13C12.09 11.74 9.25 14 5.27 14 2.35 14 0 11.5 0 8.25z" clip-rule="evenodd"/><path d="M1 6h1.5v1.5H1zM3 6h1.5v1.5H3zM5 6h1.5v1.5H5zM7 6h1.5v1.5H7zM9 6h1.5v1.5H9zM3 4h1.5v1.5H3zM5 4h1.5v1.5H5zM7 4h1.5v1.5H7zM7 2h1.5v1.5H7z"/></svg>