<svg xmlns="http://www.w3.org/2000/svg" viewBox="0 0 16 16"><path d="M3 1.0002h10v7.5a.5.5 0 0 0 1 0v-7.5c0-.5522-.4477-1-1-1H3c-.5523 0-1 .4478-1 1v14c0 .5523.4477 1 1 1h5.5a.5.5 0 1 0 0-1H3v-14z"/><path fill-rule="evenodd" d="M15.825 8.8712a.5.5 0 0 1 .053.7051l-4.4489 5.1716a.4998.4998 0 0 1-.7674-.0112l-2.55-3.1438a.5.5 0 0 1 .7766-.63l2.173 2.6791 4.0586-4.7179a.5.5 0 0 1 .7051-.053z" clip-rule="evenodd"/><path d="M4 3.5002a.5.5 0 0 1 .5-.5h7a.5.5 0 0 1 0 1h-7a.5.5 0 0 1-.5-.5zM4 5.5002a.5.5 0 0 1 .5-.5h7a.5.5 0 0 1 0 1h-7a.5.5 0 0 1-.5-.5zM4 7.5002a.5.5 0 0 1 .5-.5h7a.5.5 0 0 1 0 1h-7a.5.5 0 0 1-.5-.5zM4 9.5002a.5.5 0 0 1 .5-.5h2a.5.5 0 0 1 0 1h-2a.5.5 0 0 1-.5-.5z"/></svg>