<svg xmlns="http://www.w3.org/2000/svg" viewBox="0 0 16 16"><path d="M15 0H1C.4 0 0 .4 0 1v12c0 .6.4 1 1 1h1v1.5c0 .3.2.5.5.5s.5-.2.5-.5v-1.7c0-1 .7-1.8 1.7-1.8.9-.1 2.2.6 3 .9.2.1.4.1.6 0 .8-.3 2.1-1 3-.9.9.1 1.7.9 1.7 1.8v1.7c0 .3.2.5.5.5s.5-.2.5-.5V14h1c.6 0 1-.4 1-1V1c0-.6-.4-1-1-1zm0 13h-1.1c-.4-1.2-1.4-2-2.7-2-1 0-2.2.7-3.2 1-.9-.3-2.1-1-3.2-1-1.3 0-2.3.8-2.7 2H1V1h14v12z"/><path d="M8 10c2.2 0 4-1.8 4-4s-1.8-4-4-4-4 1.8-4 4 1.8 4 4 4zm0-7c1.7 0 3 1.3 3 3S9.7 9 8 9 5 7.7 5 6s1.3-3 3-3z"/></svg>