<svg xmlns="http://www.w3.org/2000/svg" viewBox="0 0 16 16"><path d="M11 0C9.87 0 8.84.37 8 1a5 5 0 00-7 7l5.9 7.52c.25.32.67.48 1.1.48.43 0 .85-.16 1.1-.48L15 8a4.98 4.98 0 001-3 5 5 0 00-5-5zM1.8 7.4A3.95 3.95 0 011 5a4 4 0 016.4-3.2l.6.45.6-.45a3.96 3.96 0 015.62.84L8.69 7a.24.24 0 01-.28.02L5.88 5.49a1.24 1.24 0 00-1.64.32l-1.8 2.4-.6-.75-.04-.06zm13.12-1.6a3.95 3.95 0 01-.72 1.6l-.05.06-5.83 7.43c-.04.06-.16.11-.32.11s-.28-.05-.32-.1l-4.6-5.87L5.04 6.4c.07-.1.21-.13.32-.06L7.9 7.88c.44.27 1 .23 1.41-.09l5.4-4.27a3.97 3.97 0 01.21 2.28z"/></svg>