<svg xmlns="http://www.w3.org/2000/svg" viewBox="0 0 16 16"><path fill-rule="evenodd" d="M9.07 1.184A4.024 4.024 0 0 1 13.93.538a.236.236 0 0 1 .043.374l-1.876 1.88a.76.76 0 0 0 0 1.073.754.754 0 0 0 1.07 0l1.873-1.88a.236.236 0 0 1 .375.043 4.055 4.055 0 0 1-.645 4.875 4.023 4.023 0 0 1-4.168.964l-.108.109 4.988 5.004c.69.69.69 1.81 0 2.502a1.76 1.76 0 0 1-2.494 0L8 10.478l-4.989 5.004a1.76 1.76 0 0 1-2.494 0 1.773 1.773 0 0 1 0-2.502l5.88-5.898-2.388-2.395-1.96-.179L.215 1.771a.25.25 0 0 1 .03-.316L1.499.2a.25.25 0 0 1 .317-.031l2.728 1.837.178 1.966L7.11 6.367l1-1.002a4.053 4.053 0 0 1 .96-4.18zm.765 6.024c.323-.324.821-.37 1.261-.245 1.02.288 2.16.03 2.962-.774a3.035 3.035 0 0 0 .846-2.636L13.88 4.58a1.76 1.76 0 0 1-2.495 0 1.773 1.773 0 0 1 0-2.502l1.024-1.027a3.014 3.014 0 0 0-2.627.848 3.038 3.038 0 0 0-.77 2.977c.124.438.078.934-.243 1.256l-7.54 7.563a.76.76 0 0 0 0 1.072.754.754 0 0 0 1.07 0l7.536-7.56zM8.713 9.763l4.989 5.004a.754.754 0 0 0 1.069 0 .76.76 0 0 0 0-1.072L9.78 8.69 8.714 9.763zm-5.13-7.186l.096 1.065-1.061-.097L1.4 1.727l.37-.37 1.812 1.22z" clip-rule="evenodd"/></svg>