<svg xmlns="http://www.w3.org/2000/svg" viewBox="0 0 16 16"><path fill-rule="evenodd" d="M8.5 15.0001c3.5899 0 6.5-2.9101 6.5-6.5 0-3.5898-2.9101-6.5-6.5-6.5S2 4.9103 2 8.5001c0 3.5899 2.9101 6.5 6.5 6.5zm0 1c4.1421 0 7.5-3.3578 7.5-7.5 0-4.1421-3.3579-7.5-7.5-7.5S1 4.358 1 8.5001c0 4.1422 3.3579 7.5 7.5 7.5z" clip-rule="evenodd"/><path d="M8.5 6.0001a.5.5 0 0 1 .5.5v4.5h.5a.5.5 0 0 1 0 1h-2a.5.5 0 1 1 0-1H8v-4h-.5a.5.5 0 0 1 0-1h1zM9.125 4.5001a.625.625 0 1 0-1.25 0 .625.625 0 0 0 1.25 0z"/></svg>