<svg xmlns="http://www.w3.org/2000/svg" viewBox="0 0 16 16"><path d="M15 8A7 7 0 112.848 3.261.564.564 0 003 2.881c0-.454-.516-.693-.826-.363a8 8 0 1012.72 1.422c-.27-.458-.894-.239-.894.292 0 .105.029.208.081.299A6.968 6.968 0 0115 8z"/><path fill-rule="evenodd" d="M5 5.692V10.5a.5.5 0 11-1 0V.5a.5.5 0 011-.012C5.52.216 6.232 0 7.125 0c1.61 0 2.524.627 2.809 1.127.163.337.746.373 1.066.373.446 0 .73-.074.894-.146.254-.11.497-.252.74-.394a.243.243 0 01.366.213v4.163c0 .265-.097.529-.305.694a1.71 1.71 0 01-.402.241c-.314.137-.739.229-1.293.229-1.081 0-1.731-.441-1.943-.89C8.973 5.494 8.455 5 7.125 5 5.964 5 5.269 5.442 5 5.692zm0-4v2.796C5.52 4.215 6.232 4 7.125 4c1.61 0 2.524.627 2.809 1.127.205.358.694.373 1.066.373.446 0 .73-.074.894-.146A.862.862 0 0012 5.3V2.375a3.654 3.654 0 01-1 .125c-1.081 0-1.731-.441-1.943-.89C8.973 1.494 8.455 1 7.125 1 5.964 1 5.269 1.442 5 1.692z" clip-rule="evenodd"/></svg>