<svg xmlns="http://www.w3.org/2000/svg" fill="none" viewBox="0 0 320 192"><g clip-path="url(#clip0)"><path fill="#DFE2E8" d="M311.3 96.2c-9-61.6-67.2-104.5-148.2-74.2a47.8 47.8 0 01-18 2.7C110 24 57 16.7 34.8 46c-40.1 53 31.1 147.8 98.7 146a68.5 68.5 0 0035-10.6c41.9-30.4 124.7-14.1 141.2-64.3a46.3 46.3 0 001.6-20.9z"/><path fill="#6DCCF2" d="M313.1 70.6c-1.9-73.4-77.4-73.8-118.6-58.8C159.9 24.5 141.2 39.4 57 42.1c-31.3.9-53.6 22-49.7 51.5l.3 1.9a85.1 85.1 0 0036.7 55.1 162.7 162.7 0 0065.2 24.1c32.4 5.4 66 4.7 97.6-3.7 31.6-8.4 61-24.6 83.3-47.6a73 73 0 0022.7-52.8z"/><path fill="#53BCE7" d="M185.1 15.4C155.8 27.2 133.3 39.7 57 42.1c-8.3.3-16 2-22.7 4.8-24.2 33.1-5.8 82 27.7 113.7 14.9 7 31.2 11.4 47.5 14.1 21.9 3.6 44.3 4.5 66.3 2.1 18.7-10.4 43.1-14.1 66.1-18.7a171.3 171.3 0 0048.5-34.7c9-9.2 16.5-20.1 20.1-31.9-10.1-53.4-58-91.2-125.4-76.1z"/><path fill="#fff" d="M237.5 120h.1c-.2-.7-.2-1.4-.2-2.1a9.1 9.1 0 0114.9-7l.5-1.1.5-1v-.1l.5-.9.1-.1.6-.8.1-.1.6-.8.1-.1.7-.7.1-.1.7-.7.1-.1.8-.6h.1l.9-.6.9-.6h.1l.9-.5.1-.1.9-.4.1-.1 1-.3h.2l1-.3h.2l1-.2h.1l1.1-.1h1.3a16.6 16.6 0 0116.3 19.8 9.3 9.3 0 015.3 2.8 9.9 9.9 0 013.1 7.1V131.6l-.1.5v.1l-.1.6a10 10 0 01-9.7 7.5h-45a10 10 0 01-10-10c.1-5.8 4.6-10.3 10.1-10.3z"/><path fill="#9AD0E8" d="M184.6 23.1l.1-1.8c0-4.3-3.5-7.7-7.7-7.7a8 8 0 00-4.9 1.7l-.4-1-.4-.8v-.1l-.5-.7-.1-.1-.5-.7-.1-.1-.5-.7-.1-.1-.6-.6-.1-.1-.6-.6-.1-.1a3 3 0 00-.7-.5h-.1l-.8-.5-.8-.5h-.1l-.8-.4h-.1l-.8-.3h-.1l-.8-.3h-.1l-.8-.2h-.1l-.9-.2h-.1l-.9-.1H159a14 14 0 00-13.7 16.7 8.5 8.5 0 00-4 1.8l-.5.5a7.9 7.9 0 00-2.2 3.8c-.2.7-.3 1.5-.3 2.3v1.1l.1.4v.1l.1.5a8.5 8.5 0 008.2 6.3h38c4.6 0 8.4-3.8 8.4-8.4a8.6 8.6 0 00-8.5-8.6z"/><path fill="#fff" d="M126.4 73.9h-.2A17.6 17.6 0 0098 56.2l-.9-2.2-1-1.9-.1-.1-1.1-1.7-.1-.2-1.1-1.6-.2-.2-1.2-1.5-.2-.2-1.3-1.4-.2-.2-1.4-1.3-.2-.2-1.6-1.2-.1-.1-1.7-1.2-1.8-1.1-.1-.1-1.8-.9-.2-.1-1.8-.8-.3-.1-1.9-.6-.3-.1-1.9-.5-.3-.1-2-.4h-.3a15 15 0 00-2.1-.2h-2.5A32 32 0 0037 74.1a19.4 19.4 0 00-9.2 4.1l-1.2 1.1a18.6 18.6 0 00-5.8 13.8V94.5l.1.8v.3l.1.9v.2l.3 1.1a19.3 19.3 0 0018.6 14.3h86.6c10.6 0 19.2-8.6 19.2-19.2-.1-10.4-8.7-19-19.3-19z"/><path fill="url(#paint0_linear)" d="M203.8 124.8s-3.8-10.7-10.4-8.4c-6.5 2.3-38 33.6-47.9 75.6 1-6.9 38.2-25.3 58.3-67.2z"/><path fill="url(#paint1_linear)" d="M203.8 124.8s-3.8-10.7-10.4-8.4c-6.5 2.3-25.5 33-30.6 53.4-.2-.1 17.5-10.5 41-45z"/><path fill="url(#paint2_linear)" d="M187.3 113.7s-7.2-11.8-14.4-7.5c-7.2 4.3-32.4 32.2-33.9 84.8 0 .1 34.7-22.4 48.3-77.3z"/><path fill="url(#paint3_linear)" d="M187.3 113.7s-7.2-11.8-14.4-7.5c-7.2 4.3-22.2 45.7-23.3 71.3-.3-.1 18.2-16.8 37.7-63.8z"/><path fill="#DFE2E8" d="M227.3 29.3l-28.6 74a9.8 9.8 0 004.3 12.2c4.7 2.8 10.8 1.4 11.7-3.2l46.9-70.6c7.8-8.5 3.6-21.1-5.6-25.4-11.4-5.4-24.1 1.2-28.7 13z"/><path fill="#FFCC5A" d="M256.6 15.9c-11.5-5.4-24.1 1.2-28.7 13l-5.3 13.7c6.1 7.9 16 15 31.4 14.2l10.3-15.5c5.6-8.4 1.4-21.1-7.7-25.4z"/><path fill="#000" d="M223.4 38.4l-2.5 6.8s4.5 15.9 30.3 15.7l4.4-6.2s-25.4-1.1-31.9-17.4l-.3 1.1z"/><path fill="#DFE2E8" d="M192.2 23.3L168 106.6a11 11 0 005.8 12.9c5.4 2.6 11.9.5 14.8-4.8L233 33.4c5.3-9.7-.4-23.1-10.8-27-13-4.8-26.2 3.6-30 16.9z"/><path fill="#FEC007" d="M222.2 6.4c-13-4.8-26.2 3.6-30 16.9l-4.5 15.4a39 39 0 0035.5 12.5l9.8-17.9c5.3-9.6-.4-23-10.8-26.9z"/><path fill="#000" d="M188.7 33.6l-2.1 7.7s8.6 16.6 36.7 13.9l2.1-6.8s-27.8 1.2-36.4-16l-.3 1.2z"/><path fill="#252E35" d="M176.8 109.3a15 15 0 01-7.4-7.9l-1.5 5.1a11 11 0 005.8 12.9c5.4 2.6 11.9.5 14.8-4.8l3.7-6.7a15 15 0 01-15.4 1.4z"/><path fill="#fff" d="M196.7 31.2l-.5-.1c-.9-.3-1.5-1.3-1.2-2.2 6.1-19.5 15.9-17 16.4-16.9.9.3 1.5 1.2 1.2 2.2-.3.9-1.2 1.5-2.1 1.3-.2 0-7.1-1.2-12.1 14.6a2 2 0 01-1.7 1.1z"/><path fill="#CE956F" d="M240.8 79.7L214.4 110l20.3-30.5 6.1.2zM199.8 63.1c-.1.5-8.2 2.9-14.6 9.7-5.4 5.8-7.7 19.1-7.7 19.1s.2 6.8-3.3 6.9c-3.5.1-5.9-1.6-5.9-9.7s4.6-26.9 25.3-35.7c0-.1 7.1 4.2 6.2 9.7z"/><path fill="#CDD663" d="M247.6 49.9s12.8 6.2-5.1 31.4c0 0-9.1-.8-7.1-4.7 2-4 10.9-24.8 10.9-24.8l1.3-1.9z"/><path fill="#fff" d="M209.9 44.8s9.9-8.6 37.6 4.3c14.2 6.6-23.5 52.5-23.5 52.5s-11.7 8-31.7-16.3l17.6-40.5z"/><path fill="#009BEC" d="M247.1 49c-.4 12-5 24-10.8 36.3 2.1-3.3 2.3-3.1 4.3-6.6 3.3-6.4 9.3-18.9 9-27.9l-.3-.4c-.5-.6-1.1-1-1.7-1.3l-.5-.1z"/><path fill="#CDD663" d="M231.7 56.4c2.1 2.4 3.3 3.6 6.3 2.8 5.3-1.3 8.8-8.2 8.7-10.4-6.9-3.4-12.6-5-17.5-5.9-.8 1.1.5 11.1 2.5 13.5zM190.9 54.3s3.6.1 5.7 10.8c0 0 20.5-8.2 23.4-14 2.1-4.2.6-7.3-1.2-8.1-6.5-3.3-22.5 7.8-27.9 11.3z"/><path fill="#A6AEBA" d="M165.9 152.8s-3.1-.9-4.7.5c-1.8 1.6-25 18-8.5 26.8 9.7 5.2 16.3-23 16.3-23l-3.1-4.3z"/><path fill="#DFE2E8" d="M165.9 152.8s-1.3 0-2.9 1.4c-1.8 1.6-20.8 16.5-8.7 22.8 9.7 5.2 14.7-20 14.7-20l-3.1-4.2z"/><path fill="#B77D5F" d="M175.2 152l1 .3-8 7.2s-2.4 1.1-3.2-1.5c-.8-2.6 7.2-9.9 7.2-9.9l3 3.9z"/><path fill="#A6AEBA" d="M162.1 151.6s-3.5-.9-5.2.5c-2.1 1.7-28.2 18.3-9.9 27.3 10.8 5.3 18.5-23.5 18.5-23.5l-3.4-4.3z"/><path fill="#fff" d="M162.1 151.6s-1.5 0-3.2 1.4c-2.1 1.7-23.4 16.8-10.1 23.3 10.8 5.3 16.7-20.4 16.7-20.4l-3.4-4.3z"/><path fill="#CE956F" d="M173.6 148.5l-9.5 10.2c-.4.4-.9.6-1.4.5-1.2-.2-3.2-1.1-2.5-4.5l9.1-16 4.3 9.8z"/><path fill="#B77D5F" d="M247.5 46.4s-4.7 9.8-9.3 10.1c0 0-5.5.3-5.8-10.9 0 0 4.5-3.2 4.2-9.3 0-.1 9.5 2.8 10.9 10.1z"/><path fill="#0053CC" d="M215.7 111.8v1.4L181 148.8s-11.3-.3-7.3-6.7c4-6.4 27.8-36.2 27.8-36.2l14.2 5.9z"/><path fill="#6CC0DD" d="M175.9 147.8s4.5 1.2 5.7.5l-4.5 4.3s-3.4 1.1-6.7-2l5.5-2.8z"/><path fill="#009BEC" d="M195.1 92.7l-9 6.1-21.5 47.4s.5 3.9 5.8 4.4c6.1.5 41.6-46.4 41.6-46.4l-16.9-11.5z"/><path fill="#000" d="M193.4 82.6s22.4 22 34.2 14.7l-11.8 16s-11.3 7.5-30-14.1l7.6-16.6z"/><path fill="#CE956F" d="M258.8 24.5L256 10.9s-19.5 3.1-22.9 5.7c0 0-2.5 3.8-1.9 10.6-.6-.3-1.2-.4-1.8-.3-1.7.5-2.5 2.9-1.8 5.4.7 2.5 3.5 4.7 5.2 4.3l.7-.5.3.7s6.8 11.2 18.7 10.7l1-.1c1.3-.2 4.4-.7 5.3-1.9 1.2-1.5 3.4-5.4 0-21z"/><path fill="#000" d="M238.4 19.7c-.4 0-5.7 3.3-3.5 12.4l-1 .4s-.4-6.2-3.3-5c-1.9.8-1.6 2.6-1 5.1.6 2.5 2.5 4.3 4.1 3.6l2.6 3.4s-8.2-.7-12.5-8.2c-4.3-7.4-7.1-7.3-7.1-7.3s15.5-14.6 20.4-11c4.9 3.6 1.3 6.6 1.3 6.6zM252.8 15.4s3.8-3 4.8 2.7c0 0 .8-3.9-1.4-8s-3.4 5.3-3.4 5.3z"/><path fill="#00326D" d="M250.9.1c7 2.2 7.9 13.4 1.6 17.1-1.5.9-.9-2.8-3.2-1.8-9.6 4.1-12.6 6.9-12.6 6.9l1.7-3.5S226 23 222.6 23.1l1.8-2.5s-4.9 1.9-10.7-3c0 0 6.6-1.6 8.3-4.4 0 0-2.5 1-6-3.5 0 0 3.6 2.9 25.9-8.4 1.6-.8 7.6-1.6 9-1.2z"/><path fill="#009BEC" d="M200.1 66.9l-2.5 5.8c10.3-2 30-6.3 29.6-30.2l-3.9-.4c.3 4.4.3 20.7-23.2 24.8z"/><path fill="#9AD0E8" d="M166.2 141.4s2.8 6.2 10.6 6l-4 4.1s-7 2.1-8.9-5.5l2.3-4.6z"/><path fill="#000" d="M235.9 24s15.3-6.7 27.9-6.9c0 0 3.6 11.2-3.8 12.2-.5.1-1-.2-1.3-.6-.9-1.5-3.1-4.8-4.9-3.3-2.3 1.9-2.4 5.6-5.1 7-2.1 1-10.5 5-12.8-8.4z"/><path fill="#fff" d="M253.3 18.4l-5.4 14.4.9-.4.9-.6 5.1-13.6-1.5.2zM246.4 20.2l-5.4 13c1.7.8 3.5.7 5 .3l5.4-14.6a73 73 0 00-5 1.3z"/><path fill="#00326D" d="M100.5 150.3c-1.2-2.5-.2-4.9-6.3-8.2-1.7-.9-13.9-11.1-3.5-22s18.6-9.4 21.7-16.3c0 0 .5 1.4 0 2.9 0 0 9.2-4.8 5.8-13.3 0 0 2.8 4.6 1.6 6.8 0 0 2-1.5 1-4.6 0 0 3.5 5.2-2.2 10.5 0 0 3.4.6 9.4-1.9 0 0-2.5 5-8.1 5.1 0 0 5.1 4.9 5.4 15.4 0 0 .2 5.2 4.1 7.3 3.4 1.9 3.6 11.4-1.9 20.1a8.6 8.6 0 01-6.3 3.9c-6.4.4-17.9.3-20.7-5.7z"/><path fill="#DFE2E8" d="M108.6 136.3c2.8-2.2 3-6.8.3-10.2-2.6-3.4-7-4.3-9.9-2.1-2.8 2.2-3 6.7-.3 10.1 2.6 3.4 7 4.4 9.9 2.2z"/><path fill="#fff" d="M107.4 134.3c2.7-2 3-6.2.8-9-2.3-3-6.3-3.7-9-1.6-2.7 2.2-3 6.2-.8 9.1 2.3 3 6.3 3.6 9 1.5z"/><path fill="#DFE2E8" d="M120.6 128.3c2.5-1.1 3.8-3.7 2.8-5.7s-3.7-2.7-6.2-1.5c-2.5 1.2-3.8 3.7-2.8 5.7s3.7 2.7 6.2 1.5z"/><path fill="#fff" d="M120.2 126.6c2.4-1.1 3.7-3.3 3-4.8-.8-1.6-3.2-2-5.6-.8-2.3 1-3.7 3.2-3 4.8.8 1.5 3.3 1.9 5.6.8z"/><path fill="#000" d="M109.3 128.5c.4-.3.4-1 0-1.5s-1-.7-1.5-.4c-.3.3-.3 1 0 1.5.5.6 1.1.7 1.5.4zM123 123.3c.4-.3.5-.8.3-1.2-.3-.4-.9-.4-1.3 0-.4.3-.6.8-.3 1.2.2.3.8.4 1.3 0zM96.3 113.5s-3.7 3.4-2 9c0 0-5-4.7 2-9zM108.1 106.3s-2.5-2.4-6.2-1c0 0 3-3.6 6.2 1z"/><path fill="#00326D" d="M97.6 145.8s-11.7-11-34.9-5.1c0 0 9.2 3.1 14.7 7.6l-6.5.1s3.3 3.8 7.7 5.2l-2.4.9c.1 0 12 7.5 21.4-8.7zM127.4 129s-2.8-12 5.7-21.1c0 0-.4 8.2.2 9.9 0 0 1.3-3.3 2.9-4.4 0 0 .5 3.9-.6 6.1l2.6-1.2c-.1-.1-1.5 11.9-10.8 10.7zM116.3 156s-13.1-2.8-17-1.9c0 0 2.8 2.4 5.4 3 0 0-1.3-.3-2.7.8-.8.5 5.9 1.6 14.3-1.9z"/><path fill="#fff" d="M122.3 139.9c-1.7.1-3.7 1-5.3 3.8-.8 1.4-1 3.1-.4 4.6.3.8.8 1.5 1.7 2.2l.5-1.8s4.4 1.3 3.6 3.9c0 0 4.6-1.6 3.9-5.5l1.4.9s.6-1.3.5-3c-.3-3-3-5.3-5.9-5.1z"/><path fill="#FEC007" d="M122 126.3s-5-2.3-7.5-.1c-4.4 4.1-1.2 9.3-1.1 11 0 0 5.1 3.8 8.4 1.2l-2-2.5c.1.1-.4-5.9 2.2-9.6z"/><path fill="#6F1D33" d="M121.3 126.5s-2.3 5.6-1.9 9.6l1.7 1.7s-5.2.5-6.2-.7c0 0-.4-7.6 6.4-10.6z"/><path fill="#FEC007" d="M118 151.5s-5.6.4-5 7.3c0 0-2 0-1.6-5.5l-.3.1s-3.3 4.5 1.9 7.6c0 0-.2 1 1 .8 1.3-.2.7-1.2.7-1.2s.9-2.9 5.4-2.9v-.4s-3.3-1-5.3 1.5c0 0-1.3-4.3 3.4-6.9l-.2-.4zM139.7 141s-5.2-2-7.6 4.6c0 0-1.8-.9.9-5.6l-.3-.1s-4.9 2.6-1.5 7.7c0 0-.6.8.6 1.2 1.2.4 1.2-.8 1.2-.8s2-2.3 6.1-.4l.2-.4s-2.6-2.3-5.4-.9c0 0 .2-4.5 6-4.8l-.2-.5z"/><path fill="#00326D" d="M152.3 121.6l2.6-1.1c.5-.4 1-1.1 1.7-1.2-1.8-.1 1-.9.9-1.9l-.7.3.8-1.1c.5-.7 1.5-4.2.6-3.4-.4.2 0-.1.1-.3.5-1.3-.2-2.8-1-3.9-.4-.7-1.2-.4-1.6 0-1.9 1.5-2.1 4.1-2.3 6.3-.4 3.5-.6-2-.9 2.6-.3-.3 0 1.1-.3 1.4-.7 1-2.7 3 .1 2.3z"/><path fill="#7F8B99" d="M147.9 123.5a13.7 13.7 0 007.1-7c.4-.9.7-1.8.8-2.7l-.1-.1c-.4 1.7-1 3.2-2 4.6a11.9 11.9 0 01-6 4.9l.2.3z"/><path fill="#00326D" d="M78.7 116.4c-5.3-2.2 0-12.2 0-3.2-.1 1.8.5-1 .2 1.4-.2.3 1.4 2.6-.2 1.8z"/><path fill="#7F8B99" d="M80.7 117.8a7 7 0 01-3.2-5.6h.1c.1.9.2 1.7.6 2.5.3.8.8 1.5 1.5 2.1l1 1c.1-.1.1 0 0 0z"/><path fill="#00326D" d="M90.7 171l-1.9 4c-.7.8-1.9 1.5-2.1 2.7-.2-2.7-1.6 1.5-3.3 1.5l.5-1.1c-.5.5-1.3.9-1.9 1.3-1.2.8-7.4 2.4-5.9 1 .4-.6-.2.1-.5.2-2.3.9-5-.3-6.9-1.4-1.2-.6-.7-1.8 0-2.5 2.6-2.9 7.1-3.3 11-3.7 6.2-.7-3.6-.9 4.5-1.5-.6-.5 1.9 0 2.4-.6 1.9-1 5.3-4 4.1.1z"/><path fill="#7F8B99" d="M94 164.4a19 19 0 01-4.8 6.6 23.8 23.8 0 01-12.1 6l-.1-.1c2.9-.7 5.6-1.6 8.1-3.1a20.6 20.6 0 008.5-9.3c.2-.4.4-.2.4-.1z"/></g><defs><linearGradient id="paint0_linear" x1="137.3" x2="208.9" y1="163.4" y2="142.9" gradientUnits="userSpaceOnUse"><stop stop-color="#fff" stop-opacity="0"/><stop offset="1" stop-color="#FF7D08"/></linearGradient><linearGradient id="paint1_linear" x1="156.8" x2="206.6" y1="149.2" y2="134.9" gradientUnits="userSpaceOnUse"><stop stop-color="#fff" stop-opacity="0"/><stop offset=".7" stop-color="#FEC007"/></linearGradient><linearGradient id="paint2_linear" x1="125.2" x2="194.9" y1="164.7" y2="128.2" gradientUnits="userSpaceOnUse"><stop stop-color="#fff" stop-opacity="0"/><stop offset="1" stop-color="#FF7D08"/></linearGradient><linearGradient id="paint3_linear" x1="137.3" x2="193.2" y1="154.4" y2="125.1" gradientUnits="userSpaceOnUse"><stop stop-color="#fff" stop-opacity="0"/><stop offset=".7" stop-color="#FEC007"/></linearGradient><clipPath id="clip0"><path fill="#fff" d="M0 0h320v192H0z"/></clipPath></defs></svg>