<svg width="65" height="65" viewBox="0 0 65 65" fill="none" xmlns="http://www.w3.org/2000/svg">
<path opacity="0.6" d="M61.4583 9.36438C67.3135 17.4476 64.3081 32.6815 56.9503 44.1328C49.5925 55.5841 37.8821 63.2528 27.4153 62.5274C17.0003 61.8019 7.77713 52.6824 3.47642 42.9928C-0.824286 33.3033 -0.254313 22.9919 4.30548 15.6859C8.91708 8.37988 17.5703 3.97554 29.2289 2.2138C40.8874 0.503882 55.6031 1.33293 61.4583 9.36438Z" fill="#FAAA01"/>
<path opacity="0.6" d="M54.1974 22.0726C56.6161 30.3712 56.6161 35.9593 54.1974 44.0077C51.7787 52.0144 46.9413 62.5232 39.2682 64.1496C31.5951 65.776 21.128 58.5616 15.2481 48.5115C9.32641 38.4614 8.03366 25.6172 13.2881 15.6922C18.5425 5.72552 30.3024 -1.28037 38.6427 0.721316C46.9413 2.7647 51.7787 13.7739 54.1974 22.0726Z" fill="#FAAA01"/>
<path d="M39 45.6912C39 45.2755 39.2518 44.9039 39.6264 44.7238C43.9888 42.6261 47 38.1651 47 33.0006C47 25.8206 41.1797 20.0001 34 20.0001C26.8203 20.0001 21 25.8206 21 33.0006C21 38.1651 24.0112 42.6261 28.3736 44.7238C28.7483 44.9039 29 45.2755 29 45.6912C29 46.402 28.2963 46.897 27.6525 46.5959C22.5411 44.2051 19 39.0164 19 33.0006C19 24.716 25.7157 18 34 18C42.2843 18 49 24.716 49 33.0006C49 39.0164 45.459 44.2051 40.3476 46.5959C39.7037 46.897 39 46.402 39 45.6912Z" fill="white"/>
<path d="M40.3063 32.7093C40.6938 33.0968 41.322 33.0968 41.7094 32.7093C42.0969 32.3218 42.0969 31.6936 41.7094 31.3061L34.8068 24.4032C34.7776 24.3637 34.7452 24.3259 34.7094 24.2901C34.5147 24.0954 34.2591 23.9985 34.0039 23.9995L34 23.9995L33.9961 23.9995C33.7409 23.9985 33.4854 24.0954 33.2906 24.2901C33.2549 24.3259 33.2224 24.3637 33.1933 24.4032L26.2906 31.3061C25.9031 31.6936 25.9031 32.3218 26.2906 32.7093C26.6781 33.0968 27.3063 33.0968 27.6937 32.7093L33 27.4028V47.0004C33 47.5528 33.4477 48.0005 34 48.0005C34.5523 48.0005 35 47.5528 35 47.0004V27.4028L40.3063 32.7093Z" fill="white"/>
</svg>
