<svg xmlns="http://www.w3.org/2000/svg" fill="none" viewBox="0 0 192 192"><path fill="#6C317A" d="M9.15 121.88c-4.23-12.53-3.52-27.32.28-40.09 3.8-12.77 10.45-23.74 17.85-33.37C52.15 16.04 87.36-2.97 122.2.38c6.96.67 15.23 3.67 17.17 12.53 1.06 4.84-.2 10.05.35 15.04.68 6.2 4.09 11.36 8.03 14.84 3.94 3.49 8.45 5.62 12.75 8.3a66.83 66.83 0 0 1 26.74 32.34c5.67 14.42 6.6 32.44 1.01 46.92-7.54 19.54-24.56 29.4-40.8 34.01-89.17 25.36-132.11-24.18-138.3-42.48Z"/><path fill="#53245E" d="m191.04 97.38-76.3 73.33c-55.9 5.46-88.21-21.03-100.55-39.22 3.4-5.04 7.9-9.25 12.28-12.84C67 85.53 114.73 72.5 166.57 55.38a67.14 67.14 0 0 1 24.47 42.01Z"/><path fill="#3E1847" d="M19.24 113.64a79.69 79.69 0 0 0-9.73 9.22 24.6 24.6 0 0 1-.36-.98c-4.23-12.53-3.52-27.32.28-40.09l.26-.87a262.82 262.82 0 0 1 129.89-56.24c0 1.1.02 2.19.14 3.27.68 6.2 4.09 11.36 8.03 14.84 3.03 2.68 6.4 4.56 9.74 6.5-50.93 16.53-97.87 31.33-138.25 64.35Z"/><path fill="#2CE6FF" d="M20.05 133.43a2.42 2.42 0 0 1-2.42-2.23 2.42 2.42 0 0 1 2.18-2.63l27.98-2.61a2.22 2.22 0 0 1 .45 4.4l-27.92 3.05-.27.02ZM48 126.86h-.12l-27.98 2.62a1.53 1.53 0 0 0 .33 3.03l27.9-3.06a1.3 1.3 0 0 0 1.1-1.68 1.3 1.3 0 0 0-1.23-.91ZM29.98 126.94l-4.02-3.64 6.1-.65-2.08 4.29Zm-3.31-3.4 3.22 2.9 1.66-3.43-4.88.52Z"/><path fill="#fff" d="m30.08 131.05-9.74.97a1.03 1.03 0 0 1-.2-2.05l9.73-1 .21 2.08Z"/><path fill="#8C619B" d="M40.46 136.63a2.02 2.02 0 0 1-1.72 2.26l-25.95 3.59a2.48 2.48 0 0 1-2.8-2.12c-.17-1.21.7-2.32 1.9-2.46l26.34-3.01c1.1-.13 2.09.65 2.23 1.74Z"/><path fill="#252F3E" d="m20.54 137.97.53 2.3-8.38 1.04a1.14 1.14 0 0 1-1.27-.98 1.2 1.2 0 0 1 1.03-1.35l8.1-1.01ZM21.17 142.34l1.86 2-3.45.42 1.59-2.42Zm-.04-.5-.22.33-1.58 2.42-.36.55.65-.08 3.44-.41.6-.07-.4-.44-1.87-2-.26-.3Z"/><path fill="#fff" d="M66.92 20.66c.16-.09.33-.16.5-.23a4.16 4.16 0 1 1-.5.23Zm-.72-1.3a5.66 5.66 0 0 0 .47 10.1 5.6 5.6 0 0 0 5-.23 5.65 5.65 0 0 0-5.48-9.87Z"/><path fill="#2CE6FF" d="M66.1 32.08a.74.74 0 0 1-1.04-.95l6.36-13.95a.74.74 0 1 1 1.35.62l-6.36 13.94a.74.74 0 0 1-.32.34Z"/><path fill="#fff" d="M81.62 14.92c.16-.1.33-.17.5-.24a4.16 4.16 0 1 1-.5.24Zm-.72-1.3a5.66 5.66 0 0 0 .47 10.1 5.6 5.6 0 0 0 5-.24 5.66 5.66 0 0 0-.47-10.1 5.6 5.6 0 0 0-5 .24Z"/><path fill="#8C619B" d="M80.8 26.34a.74.74 0 0 1-1.04-.96l6.36-13.95a.74.74 0 0 1 1.35.62L81.11 26a.74.74 0 0 1-.32.34Z"/><path fill="#AA8AB5" d="M30.59 44.56a4.93 4.93 0 0 1 4.77 3.72l12.8 51.12c1.12 4.42-.11 7.13-4.65 7.62l-20.27 2.49c-.4.04-.8.06-1.18.06-3.28 0-5.26-1.69-5.8-5.25L8.37 51.41a4.47 4.47 0 0 1 4-5.13l17.75-1.7.47-.02Zm0-.77c-.18 0-.37.01-.55.03l-17.74 1.7a5.2 5.2 0 0 0-3.64 1.99 5.2 5.2 0 0 0-1.05 4.01l7.89 52.91c.59 3.87 2.86 5.91 6.56 5.91.4 0 .83-.02 1.27-.07l20.27-2.49c2.26-.24 3.88-1.04 4.8-2.36 1.03-1.47 1.2-3.5.51-6.2L36.11 48.1a5.69 5.69 0 0 0-5.52-4.3Z"/><path fill="#2CE6FF" d="M12.98 43.13c-.47 0-.9-.33-1-.8l-1.06-4.9a1.02 1.02 0 0 1 .94-1.23L26 35.42c.46-.02.88.26 1.02.7l1.45 4.3a1.02 1.02 0 0 1-1.94.65l-1.2-3.56-12.15.67.8 3.7a1.02 1.02 0 0 1-1 1.25ZM26 120.9c-.47 0-.88-.32-1-.78l-1.24-5.22a1.02 1.02 0 1 1 1.99-.48l1.04 4.35 18.27-1.74-1.03-3.81a1.02 1.02 0 0 1 1.97-.54l1.35 4.98a1.02 1.02 0 0 1-.89 1.3L26.1 120.9H26ZM.68 52.06l5.83 1.81-4.47 4.8-1.36-6.61ZM0 51.3l.17.85 1.36 6.61.2.98.68-.73 4.48-4.8.55-.6-.78-.24-5.83-1.81L0 51.3ZM12.57 56.95l21.27-2.44c.38-.04.63-.4.54-.77l-1.3-5.15a.61.61 0 0 0-.65-.46l-20.74 1.86a.62.62 0 0 0-.56.55c-.04.38-.03.77.03 1.16l.72 4.73c.05.33.36.56.7.52ZM37.21 65l-1.3-5.15a.62.62 0 0 0-.67-.47L13.37 61.9a.62.62 0 0 0-.54.72l.85 5.56c.05.33.36.56.7.52l22.3-2.93c.38-.05.62-.4.53-.77ZM40.05 76.27l-1.3-5.18a.62.62 0 0 0-.69-.46l-22.9 3a.62.62 0 0 0-.54.71l.8 5.24c.05.34.36.57.7.53l23.41-3.07c.37-.05.62-.41.52-.77ZM43 87.92l-1.4-5.55a.62.62 0 0 0-.7-.47l-24 3.15a.62.62 0 0 0-.54.71l.88 5.72c.05.34.36.57.7.52l24.53-3.31a.62.62 0 0 0 .52-.77ZM19.96 104.87l25.63-3.67a.63.63 0 0 0 .53-.7c-.02-.2-.06-.4-.11-.61L44.53 94a.62.62 0 0 0-.69-.46l-25.13 3.4a.62.62 0 0 0-.53.7l.92 6.03c.04.27.1.53.19.79.1.28.38.44.67.4Z"/><path fill="#fff" d="M178.41 94.73a.72.72 0 0 1-.41-1.28l5.75-4.6a.72.72 0 1 1 .9 1.12l-5.75 4.6a.72.72 0 0 1-.49.16ZM180.13 96.72a.72.72 0 0 1-.41-1.28l5.75-4.6a.72.72 0 0 1 .9 1.11l-5.75 4.61a.71.71 0 0 1-.49.16Z"/><path fill="#2CE6FF" d="M181.66 98.66a.72.72 0 0 1-.4-1.27l5.75-4.61a.72.72 0 0 1 .9 1.12l-5.76 4.6a.72.72 0 0 1-.49.16ZM136.08 34.08a3.8 3.8 0 0 1 3.7.83l4.93 4.55a3.8 3.8 0 0 1 1.13 3.62l-1.48 6.55a3.8 3.8 0 0 1-2.57 2.79l-6.4 2a3.8 3.8 0 0 1-3.7-.84l-4.94-4.55a3.8 3.8 0 0 1-1.13-3.62l1.48-6.55a3.8 3.8 0 0 1 2.57-2.79l6.41-2Zm-.47-1.5-6.4 2a5.36 5.36 0 0 0-3.64 3.93l-1.48 6.55a5.36 5.36 0 0 0 1.6 5.12l4.93 4.55a5.36 5.36 0 0 0 5.23 1.18l6.4-2a5.36 5.36 0 0 0 3.64-3.93l1.48-6.55a5.36 5.36 0 0 0-1.6-5.12l-4.93-4.55a5.36 5.36 0 0 0-5.22-1.18Z"/><path fill="#8C619B" d="M123.24 54.87a.49.49 0 0 1-.6-.28l-4.66-10.86a.49.49 0 1 1 .9-.39l4.66 10.87a.49.49 0 0 1-.3.66Z"/><path fill="#fff" d="M128.37 48.95a.1.1 0 0 1-.12-.06l-1.7-3.95a.1.1 0 0 1 .05-.13.1.1 0 0 1 .13.06l1.7 3.95a.1.1 0 0 1-.06.13ZM131.1 48.05a.1.1 0 0 1-.12-.05l-1.7-3.95a.1.1 0 0 1 .06-.13.1.1 0 0 1 .12.05l1.7 3.95a.1.1 0 0 1-.05.13h-.01ZM133.8 47.03a.1.1 0 0 1-.13-.05l-1.7-3.95a.1.1 0 0 1 .06-.13.1.1 0 0 1 .13.05l1.7 3.95a.1.1 0 0 1-.06.13ZM139.1 45.33a.1.1 0 0 1-.11-.05l-1.7-3.95a.1.1 0 0 1 .05-.13.1.1 0 0 1 .13.05l1.7 3.95a.1.1 0 0 1-.06.13ZM141.84 44.43a.1.1 0 0 1-.12-.05l-1.7-3.95a.1.1 0 0 1 .06-.13.1.1 0 0 1 .12.05l1.7 3.95a.1.1 0 0 1-.05.13h-.01ZM144.53 43.41a.1.1 0 0 1-.12-.05l-1.7-3.95a.1.1 0 0 1 .06-.13.1.1 0 0 1 .13.05l1.7 3.95a.1.1 0 0 1-.07.13Z"/><path fill="#2CE6FF" d="M137.07 47.5a.2.2 0 0 1-.24-.12l-2.8-6.52a.2.2 0 0 1 .11-.25.2.2 0 0 1 .26.1l2.8 6.52a.2.2 0 0 1-.1.25l-.03.01Z"/><path fill="#8C619B" d="M153.17 45.55a.49.49 0 0 1-.6-.28l-4.66-10.86a.49.49 0 1 1 .9-.39l4.66 10.87a.5.5 0 0 1-.3.66Z"/><path fill="#BFC156" d="M157 141.35c1.22-.5 2.57-.91 3.85-.35.78.34 1.34 1.1 1.3 1.94-.08 1.34-1.52 2-2.7 2.55-4.08 1.9-6.69 4.65-8.2 8.75-.19.49.22 1.02.74.94 5.69-.82 16.3-13.71 18.98-10.57 1.96 3.28-7.62 10.72-13.94 14.95-.17.11-.02.37.16.27 2.95-1.6 6.14-3.6 8.1-4.81 1.2-.75 5.37-.34 1.86 3.94-2.49 3.05-7.1 4.4-10.52 6.23-3.92 2.1-6.01 6.2-10.21 8-3.57 1.53-8.41 2.56-12.18 1.57-3.76-.98-10.9-6.22-12.16-9.9 1.95-1.79 26.68-20.14 34.92-23.5Z"/><path fill="#A09B3C" d="M76.78 138.3c4.86-1.45 9.96.77 14.54 2.94l22.18 10.51c5.55 2.63 11.81 5.32 17.63 3.35 6.36-2.14 10.55-9.43 17.25-9.87 1.7-.1 3.76.58 4.08 2.25.4 2.15-2.19 3.44-4.01 4.63-6.81 4.47-5.98 13.9-12.8 18.78-5.28 3.77-8.77-.77-10.23-1.18-1.38-.4-35.73 10.22-47.7-5.74-3.18-4.23-7.01-8.32-7.3-13.6-.27-5.3 2.43-10.91 6.36-12.08Z"/><path fill="#898530" d="M148.38 145.23c-6.7.44-10.89 7.73-17.25 9.87-5.82 1.97-12.08-.72-17.63-3.35l-22.18-10.51c-4.58-2.17-12.7-13.76-17.55-12.32-3.94 1.17-3.62 16.16-3.34 21.44.28 5.29 3.23 10.2 7.29 13.6.94.8 1.94 1.51 2.98 2.16 2.96-2.84 4.15-7.6 7.74-9.71 2.28-1.34 5.12-1.32 7.68-.7 2.56.61 4.95 1.78 7.44 2.67a36.02 36.02 0 0 0 29.82-2.72c5.75-3.34 10.73-8.36 17.22-9.83-.1-.14-.22-.27-.34-.4a5.53 5.53 0 0 0-1.88-.2Z"/><path fill="#A09B3C" d="M76.46 188.97c5.92-2.82 9.24-12.92 10.44-19.85 1.2-6.93.2-14.08-1.12-20.98-1.03-5.4-2.35-10.96-5.67-15.12-2.44-3.05-5.76-5.08-9.07-6.9-3.42-1.9-20.69-.4-24.47 3.38-7.91 7.9-13.27 18.8-14.95 30.35-.45 3.14-.68 6.45-2.26 9.12-.87 1.5-2.16 2.78-2.52 4.5-.62 3 1.76 5.67 4.03 7.5 6.52 5.26 14.08 9.2 22.12 10.35 8.04 1.16 16.18 1.11 23.47-2.35Z"/><path fill="#898530" d="M63.02 191.98c-3.09-1.95-7.37-3.82-9.5-6.85a24.24 24.24 0 0 1-3.83-9.85 38.63 38.63 0 0 1 2.49-20.98 37.58 37.58 0 0 1 16.6-18.43c2.55-1.39 5.34-.82 8.1-.11 2.59.66 4.85 2.2 6.9 4.03-.81-1.88-1.04-2.42-1.44-3.24l-.13-.25-.43-.79-.05-.08a20.3 20.3 0 0 0-.92-1.47l-.16-.22-.54-.72c-2.44-3.05-5.76-5.08-9.07-6.9-3.42-1.9-7.18-2.52-11.01-2.5-5.13.01-14.3 2.67-18.08 6.45-7.91 7.91-8.65 18.22-10.33 29.78-.45 3.14-.68 6.45-2.26 9.12-.87 1.5-2.16 2.78-2.52 4.5-.62 3 1.76 5.67 4.03 7.5 6.52 5.26 14.08 9.2 22.12 10.35 3.35.49 6.72.76 10.03.66Z"/><path fill="#80F6FF" d="M170.97 144.6c-.32-.37-.76-.5-1.3-.45.5 4.58-3.03 8.16-6.94 11.3 5.05-3.93 9.66-8.47 8.24-10.84ZM159.45 145.49c1.14-.54 2.53-1.17 2.68-2.42.13-1.1-.87-2.06-1.94-2.28l-.44-.05c-.2.12-.38.24-.55.37a18.44 18.44 0 0 0-6.7 10.24 17.69 17.69 0 0 1 6.95-5.86ZM167.15 158.97c2.36-2.89 1.25-4.01-.1-4.22a4.5 4.5 0 0 1-.01 2.18 12.82 12.82 0 0 1-1.83 3.97c.73-.62 1.4-1.27 1.94-1.94ZM148.45 152.11c1.82-1.2 4.42-2.49 4-4.63a2.2 2.2 0 0 0-.17-.53c-.67-.38-1.5-.28-2.24-.06-3.19.92-5.63 3.66-6.84 6.75a20.59 20.59 0 0 0-1.22 7.83c1.63-3.63 3.22-7.23 6.47-9.36Z"/><path fill="#BFC156" d="M138.04 122.29a1.55 1.55 0 0 0-1.54-2.26c-8.05.87-17.26-.65-24.16 3.2-5.57 3.11-8.29 9.47-11.17 15.17-2.87 5.7-7.08 11.69-13.4 12.6-4.4.63-8.8-1.46-12.16-4.38-3.36-2.92-5.91-6.63-8.77-10.03-2.86-3.41-6.21-6.64-10.42-8.07-7.63-2.59-16.57 1.86-20.25 9.02-3.68 7.16-2.55 16.19 1.66 23.05 4.21 6.86 11.14 11.73 18.58 14.81 10.35 4.3 22.5 5.32 32.64.54 12.05-5.68 18.53-17.7 22.4-30.45 2 1.25 7.02 1.05 9.12 0 2.1-1.05 3.88-3.08 4.08-5.42 2.83 1.58 4.8-1.5 5.14-4.73.34-3.23-2.15-6.28-5.2-7.4 4.44 2.16 10.9-.76 13.45-5.65Z"/><path fill="#80F6FF" d="M136.5 120.03c-4.07.44-8.43.27-12.64.49 5.76 0 9.95.48 11.35 1.09.64.27 1.6.55 2.45 1.33l.38-.65a1.55 1.55 0 0 0-1.54-2.26Z"/><path fill="#A09B3C" d="M127.8 135.65a5.73 5.73 0 0 1-6 1.04c-2.42 3.28-7.73 3.88-10.82 1.22-1.38 6.83-3.53 15.7-7.62 22-4.09 6.32-8.23 12.17-14.74 15.93a22.34 22.34 0 0 1-4.51 1.94 31.73 31.73 0 0 0 4.94-1.84c12.05-5.68 18.53-17.7 22.4-30.45 2 1.25 7.02 1.05 9.12 0 2.1-1.05 3.88-3.08 4.08-5.42 2.83 1.58 4.8-1.5 5.14-4.73.1-.91-.04-1.8-.34-2.65a5.64 5.64 0 0 1-1.65 2.96Z"/><path fill="#EAEA68" d="M74.42 175a3.85 3.85 0 0 0-2.1-3.77 9.8 9.8 0 0 0-4.54-.94c-1.4 0-3.06.44-3.33 1.95-.1.58.05 1.18.37 1.68.68 1.06 1.81 1.6 2.94 2.03 5.9 2.27 6.66-.95 6.66-.95Z"/><path fill="#A09B3C" d="M78.6 124.81a30.12 30.12 0 0 1-1.57 3.43 16.67 16.67 0 0 1-2.29 3.42c-.26.27-.54.53-.85.76a4.26 4.26 0 0 1-4.18.52 3.44 3.44 0 0 1-1.42-1.05 19.32 19.32 0 0 1-4-14.33c.04-.23.08-.47.27-.6.27-.2.64-.02.92.15 3.33 2.1 6.66 4.18 13.13 7.7Z"/><path fill="#898530" d="m76.45 129.27.58-1.03a30.11 30.11 0 0 0 1.58-3.43c-6.47-3.52-9.8-5.6-13.13-7.7-.28-.17-.65-.35-.92-.16-.19.14-.23.38-.26.6-.14 1.06-.18 2.12-.14 3.17 2 2.84 4.61 5.24 7.62 6.97 1.44.82 3.04 1.5 4.67 1.58Z"/><path fill="#A09B3C" d="M50.8 172.65c-5.39-3.1-9.75-7.79-11.04-13.17-2.04-8.48-.37-18.65 6.3-24.3 4.96-4.2 12.61-4.65 18.2-1.43-2.27-2.27-4.83-4.2-7.84-5.23-7.63-2.59-16.57 1.86-20.25 9.02-3.68 7.16-2.55 16.19 1.66 23.05 3.13 5.09 7.75 9.08 12.96 12.06ZM92.74 65.65c-6.74-4.74-8.05-8.8-8.72-11-.73-2.4-1.43-5.23-.23-7.47 1.56-2.92 5.63-3.2 8.9-2.71a41.5 41.5 0 0 1 21.8 10.47c1.06.97 2.1 2.09 2.35 3.5.38 2.15-1.31 4.06-3 5.47-5.41 4.53-14.9 6.09-21.1 1.74Z"/><path fill="#898530" d="M110.36 66.16a5.63 5.63 0 0 1-.79-.52c-1.6-1.27-2.47-3.24-3.94-4.65-3.63-3.47-9.69-2.6-13.98-5.22-1.26-.76-2.4-1.94-2.54-3.4-.15-1.62.98-3.12 2.36-3.98 1.37-.87 2.99-1.24 4.52-1.78.63-.22 1.31-.56 1.76-1.04a40.65 40.65 0 0 0-5.05-1.1c-3.28-.5-7.35-.21-8.91 2.71-1.2 2.24-.5 5.06.23 7.46.67 2.21 1.98 6.27 8.72 11 5.02 3.53 12.2 3.18 17.62.52Z"/><path fill="#EAEA68" d="M102.78 67.51c-1.34-3.16-4.33-6.55-7.58-7.68-1.58-.55-3.5-.7-4.78.38-.93.8-1.28 2.05-1.6 3.23-.76 2.97-1.54 5.93-2.31 8.9-.5 1.88-.9 4.1.36 5.56.84.96 2.23 1.3 3.49 1.1a8.26 8.26 0 0 0 3.44-1.55c3.88-2.74 6.99-6.1 8.98-9.94Z"/><path fill="#BFC156" d="M102.51 66.67a12.5 12.5 0 0 0-7.3-6.84c-1.6-.55-3.52-.7-4.79.38-.93.8-1.28 2.05-1.6 3.23-.76 2.97-1.54 5.93-2.31 8.9-.5 1.88-.9 4.1.36 5.56.84.96 2.23 1.3 3.49 1.1a8.26 8.26 0 0 0 3.44-1.55c3.88-2.74 6.72-6.94 8.71-10.78Z"/><path fill="#A09B3C" d="M96.18 63.08a5.41 5.41 0 0 1 3.83-.16c-1.34-1.38-3-2.46-4.8-3.09-1.6-.55-3.52-.7-4.79.38-.93.8-1.28 2.05-1.6 3.23-.76 2.97-1.54 5.93-2.31 8.9-.5 1.88-.9 4.1.36 5.56.84.96 2.23 1.3 3.49 1.1a8.26 8.26 0 0 0 3.44-1.55 23.8 23.8 0 0 0 5.05-4.96 7.39 7.39 0 0 0-1-.57c-1.16-.55-2.44-.96-3.34-1.88-1.95-2-.88-5.8 1.67-6.96Z"/><path fill="#EAEA68" d="M98.84 83.72c-1.88-6.53-9.77-10.48-16.55-10.9-6.79-.43-13.52 3.06-17.72 8.4-4.21 5.34-6.03 12.33-5.8 19.12.28 7.83 3.36 15.76 9.31 20.86 5.61 4.8 12.44 7.27 19.81 7.83 2.2.17 5.35-1.03 7.29-2.1 3.1-1.72 5.44-6.65 5.85-10.17 1.3-10.9 1.18-21.3-2.2-33.04Z"/><path fill="#BFC156" d="M97.47 84.46c-1.87-6.54-8.4-11.22-15.18-11.65-6.79-.42-13.52 3.07-17.72 8.41-4.21 5.34-6.03 12.33-5.8 19.12.28 7.83 3.36 15.76 9.31 20.86 5.61 4.8 13.17 5.75 20.54 6.32 2.2.16 3.98-.83 5.91-1.9 3.1-1.73 4.32-2.83 4.74-6.36 1.3-10.9 1.58-23.07-1.8-34.8Z"/><path fill="#A09B3C" d="M99.05 120.42c-4.29 3.1-9.77 5.67-14.95 4.57-5.28-1.13-9.99-5.1-11.52-10.27-.17-.6-.28-1.32.13-1.78.4-.46 1.1-.44 1.72-.4 6.12.44 12.3.05 18.32-1.14.87-.18 1.83-.43 2.33-1.16.74-1.1.05-2.57-.63-3.7-1.2-2-2.01-3.8-3.84-5.34a26.21 26.21 0 0 0-5.39-3.33c-3.17-1.56-6.52-2.97-9.03-5.46-2.51-2.5-3.99-6.44-2.47-9.64 1.26-2.65 4.14-4.06 6.71-5.47 1-.55 2.04-1.18 2.53-2.2 2.1-4.4-7.26-1.57-8.82-.98a22.66 22.66 0 0 0-9.57 7.1c-4.21 5.34-6.03 12.33-5.8 19.12.28 7.83 3.02 16.38 8.97 21.48 5.6 4.81 12.54 6.65 19.9 7.21 2.21.17 10.84-2.54 11.41-8.6Z"/><path fill="#635925" d="M91.38 115.3c-4.9-.36-9.8-.57-14.7-.62a.8.8 0 0 0-.75 1.1 11.1 11.1 0 0 0 9.35 6.9c1.92.12 3.97-.33 5.36-1.67a5.89 5.89 0 0 0 1.49-5.02.82.82 0 0 0-.75-.68Z"/><path fill="#fff" d="M90.73 117.1c.33-.53.47-1.2.38-1.8-4.8-.37-9.62-.57-14.43-.62a.8.8 0 0 0-.75 1.1c.17.43.38.86.6 1.27 2.5 1.2 5.38 1.57 8.16 1.82 1.1.1 2.23.18 3.31-.04a4.12 4.12 0 0 0 2.73-1.73Z"/><path fill="#898530" d="m85.77 124.63-2.53-.55c-.17-.04-.38-.07-.5.06-.1.12-.09.3-.05.45.13.59.43 1.16.92 1.5.48.36 1.18.46 1.7.15.52-.3.77-1.04.46-1.61Z"/><path fill="#717599" d="M106.62 109.23c2.17-.51 3.72-2.7 4.23-4.88.87-3.74.97-7.66.28-11.44-.36-1.98-.97-3.99-2.28-5.51-1.6-1.86-4.03-2.77-6.4-3.4-8.71-2.33-17.88-1.97-26.88-1.59-2 .08-4.16.22-5.72 1.48-1.7 1.37-2.25 3.71-2.6 5.85-.56 3.37-.8 6.77-.75 10.18.05 2.84.31 6.06 2.33 8.14 2.14 2.2 5.53 2.43 8.6 2.51 9.48.27 19.33.98 29.19-1.34Z"/><path fill="#EAEBF4" d="M108.38 86.9c-1.59-1.53-3.78-2.33-5.93-2.9-8.71-2.33-17.88-1.97-26.88-1.59-2 .08-4.16.22-5.72 1.48-1.58 1.27-2.17 3.38-2.52 5.38 13.18-3.7 27.23-3.3 41.05-2.37Z"/><path fill="#404466" d="M72.1 94.45c.05-4.02.68-8.02 1.7-11.93a7.31 7.31 0 0 0-3.95 1.37c-1.7 1.37-2.25 3.71-2.6 5.85-.56 3.37-.8 6.77-.75 10.18.05 2.84.31 6.06 2.33 8.14 1.7 1.76 4.21 2.25 6.71 2.43a35.16 35.16 0 0 1-3.44-16.04Z" opacity=".19"/><path fill="#DADDE8" d="m81.7 110.68 1 .02a43.5 43.5 0 0 0-4.02-28.41c-.36 0-.72.02-1.08.04a42.5 42.5 0 0 1 4.1 28.35ZM107.4 108.97a40.82 40.82 0 0 0-1.76-23.87c-.41-.19-.84-.35-1.26-.5a39.66 39.66 0 0 1 1.9 24.7s.42-.08.62-.14c.24-.08.51-.2.5-.2Z"/><path fill="#9EA4CC" d="M105.64 98.07a2.53 2.53 0 0 0-1.3-2.04 3.1 3.1 0 0 0-1.59-.38l-13.92.24c-.91.01-1.87.04-2.53 1.21-.44.8-.56 1.78-.3 2.65a4.26 4.26 0 0 0 2.76 2.68c1.21.42 2.51.4 3.79.38 3.24-.04 6.47-.08 10.36-.82 1.68-.32 2.94-2.05 2.73-3.92Z"/><path fill="#0C0C16" d="M105.25 97.5a2.28 2.28 0 0 0-1.3-1.8 3.37 3.37 0 0 0-1.56-.35l-13.65.04c-.9 0-1.84.02-2.47 1.04a2.71 2.71 0 0 0-.27 2.31c.42 1.19 1.54 2 2.74 2.39 1.2.38 2.47.38 3.72.38 3.18 0 6.35 0 10.16-.6a3.1 3.1 0 0 0 2.63-3.41Z"/><path fill="#383854" d="M104.79 98.22a2.28 2.28 0 0 0-1.3-1.8 3.38 3.38 0 0 0-1.57-.35l-13.65.04c-.77 0-1.57.02-2.18.67a2.7 2.7 0 0 0-.09 1.96c.42 1.19 1.54 2 2.74 2.39 1.2.38 2.47.38 3.72.38 3.18 0 6.35 0 10.16-.6a3.2 3.2 0 0 0 1.92-1.08c.23-.49.33-1.04.25-1.61Z"/><path fill="#2CE6FF" d="M92.43 100.1a3 3 0 0 1-.85-.12 1.7 1.7 0 0 1-1.22-1.25c-.11-.62.22-1.28.81-1.6.48-.27 1.02-.28 1.46-.28l7.35-.11h.19c.18 0 .42.02.66.14.38.2.63.64.65 1.13l.01.15c.03.72-.5 1.4-1.18 1.5-1.65.25-3.3.3-4.87.34-.77.02-1.57.04-2.34.09l-.67.02Z"/><path fill="#B8FDFF" d="M100.16 97.17c.16 0 .33.02.47.1.27.13.4.45.42.76l.01.13c.02.5-.32 1.01-.81 1.08-2.44.36-4.84.28-7.17.42a8.2 8.2 0 0 1-.64.02c-.25 0-.5-.03-.73-.1-.44-.14-.84-.48-.92-.93-.09-.45.19-.93.59-1.15.38-.2.82-.22 1.25-.22l7.36-.11h.17Zm.02-.86h-.2l-3.56.05-3.8.06c-.46 0-1.08.01-1.65.33a1.99 1.99 0 0 0-1.03 2.05c.14.73.72 1.34 1.52 1.6.28.08.6.13.96.14a70.8 70.8 0 0 1 3.03-.1c1.6-.05 3.24-.1 4.92-.35.9-.13 1.58-1 1.55-1.96l-.01-.12v-.04a1.73 1.73 0 0 0-.88-1.47c-.32-.16-.64-.19-.85-.2Z"/><path fill="#2CE6FF" d="M92.43 99.82c-.3 0-.54-.04-.76-.11-.54-.17-.94-.58-1.02-1.04-.1-.49.18-1.03.66-1.3.42-.22.9-.23 1.32-.24l7.36-.1h.17c.15 0 .35.01.53.1.33.18.49.6.5.95l.01.14c.02.57-.39 1.09-.93 1.17-1.64.24-3.27.28-4.84.32-.77.02-1.57.05-2.35.1-.2 0-.42.02-.65.01Z"/><path fill="#69F4FF" d="M100.16 97.17c.16 0 .33.02.47.1.27.13.4.51.42.81l.01.14c.02.49-.32.95-.81 1.02-2.44.37-4.84.28-7.17.42l-.64.02c-.25 0-.5-.03-.73-.1-.44-.14-.84-.48-.92-.93-.09-.45.19-.93.59-1.15.38-.2.82-.22 1.25-.22a180532.51 180532.51 0 0 0 7.53-.11Zm0-.3-.17.01-7.36.11c-.42 0-.94.01-1.39.26-.53.29-.84.9-.74 1.45.1.51.54.96 1.13 1.15.23.07.5.1.8.11.23 0 .46 0 .66-.02.77-.04 1.57-.06 2.34-.08 1.58-.05 3.21-.09 4.86-.33.62-.1 1.08-.66 1.06-1.32v-.09l-.01-.05c-.02-.38-.2-.86-.58-1.06-.2-.1-.43-.13-.6-.13Z"/><path fill="#EAEA68" d="M56.73 55.75c4.76 5.98 8.58 13.52 13.34 19.51.63.8 1.14 1.89 1.1 2.9-.06 1.44-1.48 2.41-2.83 2.9-4.2 1.48-8.96.42-12.81-1.82-3.85-2.24-6.94-5.56-9.93-8.86-.81-.9-1.68-2-1.42-3.17.2-.89.97-1.5 1.7-2.05 3.29-2.44 7.68-6.65 10.85-9.41Z"/><path fill="#BFC156" d="M55.62 57.5c4.76 6 9.52 11.98 14.29 17.96.63.8 1.3 1.69 1.26 2.7-.06 1.44-1.48 2.41-2.83 2.9-4.2 1.48-8.96.42-12.81-1.82-3.85-2.24-6.94-5.56-9.93-8.86-.81-.9-1.68-2-1.42-3.17.2-.89.97-1.5 1.7-2.05 3.29-2.44 6.57-4.89 9.74-7.65Z"/><path fill="#A09B3C" d="M68.34 81.05c.55-.2 1.1-.47 1.58-.83-4.51.75-9.32-.25-13.1-2.85a9.35 9.35 0 0 1-3.38-3.72c-.7-1.55-.69-3.5.35-4.84.8-1.06 2.09-1.61 3.14-2.42a8.63 8.63 0 0 0 2.76-3.77l-4.07-5.11c-3.17 2.76-6.45 5.2-9.74 7.65-.73.54-1.5 1.16-1.7 2.05-.26 1.17.6 2.28 1.42 3.17 2.99 3.3 6.08 6.62 9.93 8.86 3.85 2.24 8.61 3.3 12.81 1.81Z"/><path fill="#BFC156" d="M55.55 40.1c3.82 4.07 4.98 10.26 3.51 15.65-1.47 5.39-5.35 9.94-10.13 12.85-4.77 2.9-10.37 4.24-15.95 4.52-1.85.1-3.74.07-5.48-.55-1.74-.62-3.32-1.91-3.86-3.68-.75-2.41.56-4.95 1.94-7.06a68.38 68.38 0 0 1 25.18-23c.8-.42 2.95-.73 4.8 1.26Z"/><path fill="#A09B3C" d="M50.86 58.66c-4.81 5.4-11.54 8.78-18.45 10.92-1.31.4-2.66.77-4.02.68-1.37-.09-2.77-.7-3.47-1.89-1.09-1.84-.13-4.18.84-6.1l1.37-2.7c-.53.74-1.05 1.5-1.55 2.26-1.38 2.11-2.69 4.65-1.94 7.06.54 1.77 2.12 3.06 3.86 3.68 1.74.62 3.63.64 5.48.55 5.58-.28 11.18-1.62 15.95-4.52 4.78-2.9 8.66-7.46 10.13-12.85 1.27-4.63.58-9.85-2.06-13.81.42 6-2.08 12.17-6.14 16.72Z"/><path fill="#635925" d="M49.81 53.83c.43-.9.86-1.81.97-2.78.11-.96-.13-2-.9-2.67-1.33-1.17-3.67-.74-5.1.37-1.43 1.11-2.25 2.7-3.28 4.13-1.45 2-3.38 3.72-5.61 5-.8.46-1.65.87-2.32 1.48-.66.62-1.1 1.5-.87 2.32.4 1.36 2.31 1.76 3.88 1.69 5.2-.25 10.25-3.25 13.23-9.54Z"/><path fill="#272A4C" d="M49.88 48.38c-1.33-1.17-3.67-.74-5.1.37-1.43 1.11-2.25 2.7-3.28 4.13-1.45 2-3.38 3.72-5.61 5-.8.46-1.65.87-2.32 1.48-.66.62-1.1 1.5-.87 2.32.09.3.25.55.47.76 2.17-1.69 5.2-2.66 7.3-4.5 1.8-1.6 2.85-3.75 4.54-5.44a11.67 11.67 0 0 1 5.6-3.02 2.6 2.6 0 0 0-.73-1.1Z" opacity=".2"/><path fill="#fff" d="M143.42 98.83c.03.03.06.05.1.06.18.05.36-.05.42-.23l6.27-21.2-10.86-24.78a.33.33 0 1 0-.6.26L149.5 77.5l-6.2 20.97c-.04.14.01.28.12.36Z"/><path fill="#A975BF" d="M137.93 137.9a15.98 15.98 0 1 0 0-31.96 15.98 15.98 0 0 0 0 31.96Z" opacity=".34"/><path fill="#2CE6FF" d="M137.95 144.68c-.59.01-1.2-.02-1.78-.06a.32.32 0 0 1-.3-.35.32.32 0 0 1 .35-.3 22.5 22.5 0 0 0 2.86.04c.17-.01.33.13.34.3.01.18-.13.33-.3.34l-1.17.03Zm4.03-.36a.32.32 0 0 1-.06-.64c.94-.17 1.88-.4 2.78-.7.17-.05.35.04.4.21a.32.32 0 0 1-.2.4 22.8 22.8 0 0 1-2.92.73Zm-8.66-.11h-.06c-.96-.2-1.92-.47-2.84-.8a.32.32 0 1 1 .21-.6c.9.3 1.83.57 2.76.76a.32.32 0 0 1-.06.64Zm14.18-1.66a.32.32 0 0 1-.14-.62c.86-.4 1.7-.87 2.5-1.39a.32.32 0 1 1 .35.55c-.82.53-1.69 1-2.57 1.42a.32.32 0 0 1-.14.04Zm-19.65-.25a.32.32 0 0 1-.14-.04c-.88-.44-1.73-.94-2.54-1.49a.32.32 0 0 1 .36-.53c.79.53 1.62 1.02 2.47 1.45a.32.32 0 0 1-.15.6Zm24.52-2.88a.32.32 0 0 1-.2-.57c.72-.62 1.42-1.28 2.06-1.98a.32.32 0 1 1 .48.43c-.67.72-1.38 1.4-2.13 2.04a.32.32 0 0 1-.2.08Zm-29.31-.37a.32.32 0 0 1-.22-.09 23.12 23.12 0 0 1-2.07-2.09.32.32 0 0 1 .48-.42c.63.72 1.3 1.4 2.02 2.03a.32.32 0 0 1-.21.57Zm33.23-3.9a.32.32 0 0 1-.26-.5c.54-.79 1.04-1.61 1.49-2.45a.32.32 0 0 1 .57.3 22.8 22.8 0 0 1-1.54 2.51.32.32 0 0 1-.26.14Zm-37.04-.47c-.1 0-.2-.05-.27-.14a22.9 22.9 0 0 1-1.47-2.55.32.32 0 0 1 .15-.44.32.32 0 0 1 .43.15c.42.85.9 1.69 1.43 2.48a.32.32 0 0 1-.27.5Zm39.74-4.66-.12-.02a.32.32 0 0 1-.19-.42c.33-.9.6-1.82.82-2.74a.32.32 0 0 1 .63.14c-.22.96-.5 1.9-.84 2.83a.32.32 0 0 1-.3.2Zm-42.3-.53a.32.32 0 0 1-.31-.22c-.31-.93-.57-1.89-.77-2.85a.32.32 0 0 1 .64-.12c.18.93.44 1.86.74 2.76a.32.32 0 0 1-.3.43Zm43.58-5.13h-.03a.32.32 0 0 1-.3-.35 22.39 22.39 0 0 0 .1-2.86c-.02-.18.12-.33.3-.33.19-.01.33.13.34.31a23.26 23.26 0 0 1-.1 2.94.32.32 0 0 1-.31.3Zm-44.73-.55a.32.32 0 0 1-.32-.3 23.18 23.18 0 0 1 .14-4.53c.02-.17.18-.3.36-.27.18.02.3.18.28.36a22.27 22.27 0 0 0-.13 4.4.32.32 0 0 1-.3.34h-.02Zm44.53-5.23a.32.32 0 0 1-.32-.27c-.16-.94-.37-1.88-.65-2.8a.32.32 0 0 1 .62-.18c.28.94.5 1.9.67 2.87a.32.32 0 0 1-.32.38Zm-43.84-2.08-.08-.01a.32.32 0 0 1-.23-.4c.25-.94.57-1.88.94-2.79a.32.32 0 1 1 .6.24c-.37.89-.67 1.8-.91 2.72a.32.32 0 0 1-.32.24Zm42.16-3.47a.32.32 0 0 1-.3-.19c-.38-.87-.83-1.71-1.33-2.52a.32.32 0 0 1 .1-.45c.15-.1.35-.05.44.1.52.84.98 1.72 1.39 2.6a.32.32 0 0 1-.3.46Zm-39.96-1.9a.32.32 0 0 1-.28-.48c.49-.85 1.03-1.67 1.62-2.45a.32.32 0 1 1 .52.39c-.58.75-1.1 1.56-1.58 2.38a.32.32 0 0 1-.28.17Zm36.92-3.03a.32.32 0 0 1-.25-.11 22.3 22.3 0 0 0-1.94-2.1.32.32 0 1 1 .44-.47c.71.67 1.38 1.4 2 2.16a.32.32 0 0 1-.25.52Zm-33.42-1.58a.32.32 0 0 1-.23-.55 23.1 23.1 0 0 1 2.2-1.96.32.32 0 1 1 .4.5 22.3 22.3 0 0 0-2.14 1.91.32.32 0 0 1-.23.1Zm29.22-2.4a.32.32 0 0 1-.2-.07 22.03 22.03 0 0 0-2.4-1.53.32.32 0 0 1-.14-.44.32.32 0 0 1 .44-.13c.86.47 1.7 1 2.49 1.58a.32.32 0 0 1-.2.58Zm-24.66-1.18a.32.32 0 0 1-.17-.6c.84-.5 1.72-.95 2.62-1.33.17-.07.36 0 .43.16.07.17 0 .36-.17.43-.88.38-1.73.81-2.55 1.3a.32.32 0 0 1-.16.04Zm19.58-1.61a22.12 22.12 0 0 0-2.85-.88.32.32 0 0 1-.24-.4.33.33 0 0 1 .4-.23c.94.23 1.89.53 2.8.89a.32.32 0 0 1-.12.62Zm-14.26-.67a.32.32 0 0 1-.09-.63c.94-.28 1.9-.48 2.88-.62.18-.03.34.1.36.27.03.17-.1.34-.27.36a22.31 22.31 0 0 0-2.88.61Zm8.63-.71h-.04a21.46 21.46 0 0 0-2.86-.14.32.32 0 0 1-.32-.32c0-.17.13-.32.31-.32h.4c.85 0 1.7.04 2.54.13a.32.32 0 0 1-.03.65Z"/><g opacity=".75"><path fill="#2CE6FF" d="M137.93 126.12a4.2 4.2 0 1 0 0-8.4 4.2 4.2 0 0 0 0 8.4Z" opacity=".75"/><path fill="#fff" d="M137.93 118.53a3.39 3.39 0 1 1 0 6.78 3.39 3.39 0 0 1 0-6.78Zm0-1.61a5.01 5.01 0 1 0 .01 10.02 5.01 5.01 0 0 0-.01-10.02Z" opacity=".75"/></g><path fill="#fff" d="M137.93 113.85a8.07 8.07 0 1 1 0 16.14 8.07 8.07 0 0 1 0-16.14Zm0-.97a9.05 9.05 0 0 0 0 18.08 9.05 9.05 0 0 0 0-18.08Z"/><path fill="#8C619B" d="M152 187.04a.32.32 0 0 1-.32-.26l-8.25-40.85a.32.32 0 0 1 .63-.13l8.08 40.01 11.95-20.92c.09-.15.28-.2.44-.12.16.1.2.29.12.44l-12.37 21.67a.33.33 0 0 1-.28.16Z"/><path fill="#8C619B" d="m168.69 158.21-1.16-.6a.69.69 0 0 0-.93.3l-3.35 6.43a.69.69 0 0 0 .3.93l1.15.6c.34.17.76.04.93-.3l3.35-6.43a.69.69 0 0 0-.3-.93ZM144.4 145l-1.28.22a.7.7 0 0 0-.57.8l1.23 7.14a.7.7 0 0 0 .8.57l1.28-.22a.7.7 0 0 0 .56-.8l-1.22-7.15a.69.69 0 0 0-.8-.56Z"/><path fill="#fff" d="m144.6 92.56 1.48.4c.33.09.52.42.43.75l-1.33 4.96a.61.61 0 0 1-.75.43l-1.49-.4a.6.6 0 0 1-.43-.75l1.34-4.96a.61.61 0 0 1 .74-.43ZM138.15 52.5l1.42-.6c.3-.13.66.01.8.32l2 4.73a.61.61 0 0 1-.33.8l-1.41.6a.6.6 0 0 1-.8-.32l-2-4.73a.61.61 0 0 1 .32-.8Z"/><path fill="#2CE6FF" d="M181.06 152.52c2.45-6.2.39-12.83-4.6-14.8-5-1.97-11.02 1.46-13.47 7.66-2.45 6.2-.4 12.82 4.6 14.8 4.99 1.97 11.02-1.46 13.47-7.66Z" opacity=".3"/><path fill="#2CE6FF" d="M173.51 137.16v3.88c.53 0 1.04.1 1.52.28 2.95 1.17 4.06 5.64 2.42 9.77-1.34 3.4-4.18 5.77-6.91 5.77-.54 0-1.05-.1-1.53-.29-1.75-.7-2.51-2.4-2.81-3.36a9.87 9.87 0 0 1 .4-6.4c1.33-3.4 4.18-5.77 6.9-5.77l.01-3.88Zm0 0c-4.22 0-8.54 3.2-10.52 8.22-2.45 6.2-.4 12.82 4.6 14.8a8 8 0 0 0 2.94.55c4.22 0 8.55-3.2 10.53-8.21 2.45-6.2.39-12.83-4.6-14.8a8 8 0 0 0-2.95-.56Z"/></svg>
